<?xml version="1.0" encoding="UTF-8"?>
<svg id="Calque_1" data-name="Calque 1" xmlns="http://www.w3.org/2000/svg" xmlns:xlink="http://www.w3.org/1999/xlink" viewBox="0 0 751.74 549.5">
  <defs>
    <style>
      .cls-1 {
        fill: #ff1a1a;
      }

      .cls-2, .cls-3 {
        fill: #fff;
      }

      .cls-4 {
        fill: #977;
      }

      .cls-5 {
        fill: url(#Dégradé_sans_nom_18-2);
      }

      .cls-6 {
        fill: url(#Dégradé_sans_nom_41);
      }

      .cls-7 {
        fill: url(#Dégradé_sans_nom_18);
      }

      .cls-8 {
        fill: #b69e9e;
      }

      .cls-9 {
        fill: #a36844;
      }

      .cls-3 {
        stroke: #fff;
        stroke-miterlimit: 10;
        stroke-width: 20px;
      }

      .cls-10 {
        fill: #ffce00;
      }

      .cls-11 {
        fill: url(#Dégradé_sans_nom_38);
      }

      .cls-12 {
        fill: #211212;
      }

      .cls-13 {
        fill: url(#Dégradé_sans_nom_42);
      }

      .cls-14 {
        fill: #d0bfbf;
      }
    </style>
    <linearGradient id="Dégradé_sans_nom_38" data-name="Dégradé sans nom 38" x1="240.34" y1="355.94" x2="375.87" y2="355.94" gradientTransform="translate(751.74) rotate(-180) scale(1 -1)" gradientUnits="userSpaceOnUse">
      <stop offset="0" stop-color="#c62a48"/>
      <stop offset=".12" stop-color="#c92945"/>
      <stop offset="1" stop-color="#e32433"/>
    </linearGradient>
    <linearGradient id="Dégradé_sans_nom_18" data-name="Dégradé sans nom 18" x1="289.5" y1="330.42" x2="336.78" y2="330" gradientTransform="translate(751.74) rotate(-180) scale(1 -1)" gradientUnits="userSpaceOnUse">
      <stop offset="0" stop-color="#fbb03b"/>
      <stop offset=".98" stop-color="#fcee21"/>
    </linearGradient>
    <linearGradient id="Dégradé_sans_nom_42" data-name="Dégradé sans nom 42" x1="70.69" y1="160.73" x2="730.02" y2="287.25" gradientTransform="translate(751.74) rotate(-180) scale(1 -1)" gradientUnits="userSpaceOnUse">
      <stop offset="0" stop-color="#9c2132"/>
      <stop offset=".08" stop-color="#a42030"/>
      <stop offset=".71" stop-color="#e51f23"/>
      <stop offset="1" stop-color="#ff1f1f"/>
    </linearGradient>
    <linearGradient id="Dégradé_sans_nom_18-2" data-name="Dégradé sans nom 18" x1="466.22" y1="330.18" x2="409.46" y2="331.01" xlink:href="#Dégradé_sans_nom_18"/>
    <linearGradient id="Dégradé_sans_nom_41" data-name="Dégradé sans nom 41" x1="10" y1="270.62" x2="741.74" y2="270.62" gradientTransform="translate(751.74) rotate(-180) scale(1 -1)" gradientUnits="userSpaceOnUse">
      <stop offset="0" stop-color="#211212"/>
      <stop offset=".98" stop-color="#030000"/>
    </linearGradient>
  </defs>
  <path class="cls-3" d="m288.53,531.25l-120.55-43.49c-7.98-2.88-11.57-12.15-7.59-19.65l20.62-38.89-141.12-118.09c-4.63-3.87-7.64-9.33-8.46-15.31L10.21,140.21c-1.07-7.81,2.04-15.61,8.19-20.55L151.14,13.07c10.55-8.47,25.65,1.95,21.48,14.82l-31.91,98.42,38.19,74.26c.56.28,33.27,16.55,37.19,18.49.7-6.03,4.44-11.28,9.91-13.91l88.68-42.57,40.53-121.8c1.25-3.73,4.74-6.25,8.68-6.25h23.96c3.94,0,7.43,2.52,8.68,6.25l40.53,121.8,88.68,42.57c5.47,2.63,9.21,7.88,9.91,13.91,3.92-1.94,36.63-18.21,37.19-18.49l38.19-74.26-31.91-98.42c-4.17-12.87,10.93-23.29,21.48-14.82l132.74,106.59c6.15,4.94,9.26,12.74,8.19,20.55l-21.22,155.61c-.82,5.98-3.83,11.44-8.46,15.31l-141.12,118.09,20.62,38.89c3.98,7.5.39,16.77-7.59,19.65l-120.55,43.49-23.39,7.83c-5.4,1.7-11.01-1.97-11.62-7.6-.15-1.46-.31-2.92-.47-4.37l-51.86,9.4-51.86-9.4c-.16,1.45-.32,2.91-.47,4.37-.61,5.63-6.22,9.3-11.62,7.6l-23.39-7.83Z"/>
  <path class="cls-12" d="m308.1,524.22l67.77,12.28,59.61-10.8c-.62-5.82-1.93-26.23-2.52-31.68l-57.09,17.81-55.78-17.4c-.59,5.45-11.36,23.98-11.98,29.8Z"/>
  <path class="cls-11" d="m415.32,402.63l.04.03c4.01-2.45,8.46-4.97,13.22-7.53.54-.33,1.08-.66,1.63-.99l68.09-42.89,12.99-41.58.11-.45-21.09,2.65-8.32,1.05-37.17,4.66-21.92,2.75-1.47.19-10.24,1.33-1.16,1.79-13.58,20.94h0s-20.58,44.07-20.58,44.07l39.45,13.98Z"/>
  <polygon class="cls-4" points="415.36 402.66 375.87 388.65 375.87 450.81 375.87 526.18 429.86 515.9 415.36 402.66"/>
  <polygon class="cls-2" points="336.46 402.63 375.87 388.65 375.87 450.81 375.87 526.18 321.88 515.9 336.46 402.63"/>
  <path class="cls-12" d="m396.45,344.58h0s51.69,4.61,51.69,4.61l28.12-16.15,5.73-20.12-37.17,4.66-21.92,2.75-1.47.19-7.08.89-3.12.39-.04.05-1.16,1.79-13.58,20.94Z"/>
  <polygon class="cls-7" points="410.38 337.95 416.51 326.64 466.88 319.83 461.28 332.1 442.61 340.87 410.38 337.95"/>
  <path class="cls-9" d="m328.14,202.94l47.73,30.47,47.73-30.47c-2.11-7.45-36.8-129.86-42.09-148.52-.4-1.41-1.68-2.38-3.15-2.38h-4.98c-1.47,0-2.75.97-3.15,2.38-5.29,18.65-39.98,141.07-42.09,148.52Z"/>
  <path class="cls-13" d="m40.51,140.38l20.57,150.81s103.69,82.38,134.38,106.77l6.06-52.52-1.91-2.68-84.56-46.2-44.41-133.45,3.91,9.39c-2.45-6.14-3.91-9.97-3.84-10.24l43.48-70.57c1.57-2.55,5.48-.66,4.45,2.15-8.11,22.2-19.31,52.89-25.03,67.75,18.53,35.66,36.39,71.9,55.25,107.27,0,0,41.12,17.11,55.9,23.27l1.03-9.39c.13-1.21,1.26-2.05,2.46-1.83l.69.12.85-7.3,2.23.31,147.47,19.97,16.38,27.16,16.38-27.16,147.47-19.97,2.23-.31.85,7.3.69-.12c1.2-.22,2.33.62,2.46,1.83l1.03,9.39c14.78-6.16,55.9-23.27,55.9-23.27,18.86-35.37,36.72-71.61,55.25-107.27-5.72-14.86-16.92-45.55-25.03-67.75-1.03-2.81,2.88-4.7,4.45-2.15l43.48,70.57c.07.27-1.39,4.1-3.84,10.24l3.91-9.39-44.12,133.45-84.85,46.2-1.91,2.68,6.06,52.52c30.69-24.39,134.39-106.77,134.38-106.77l20.57-150.81c-27.21-21.86-72.78-67.18-100.27-89.26,3.84,19.69,15.78,59.1,19.62,78.79l-35.56,93.13-18.04,8.97c-11.54,5.75-25.8,12.84-33.77,16.8l-.87-7.57c-.43-3.7-3.69-6.42-7.41-6.16l-120.4,8.4-34.97,37.14c-2,2.12-5.38,2.12-7.38,0l-34.97-37.14-120.4-8.4c-3.72-.26-6.98,2.45-7.41,6.16l-.87,7.57c-7.97-3.96-22.23-11.05-33.77-16.8l-18.04-8.97-36.82-93.73c3.84-19.69,17.04-58.5,20.88-78.19-27.49,22.08-73.06,67.4-100.27,89.26Z"/>
  <path class="cls-12" d="m551.55,330.69l.58,12.07,84.02-43.04c1.99-1.02,3.48-2.79,4.14-4.92l40.82-131.69-3.91,9.39c-.13.35-35.32,84.8-45.43,109.08-1.74,4.19-4.85,7.65-8.82,9.83-23.71,13.04-47.73,26.25-71.39,39.28Z"/>
  <path class="cls-12" d="m429.03,394.88c28.17-15.13,67.06-31.89,90.42-46.74l27.09-34.61-.99-8.6-34.12,4.29-.14.45-12.99,41.58-68.09,42.89-1.18.74Z"/>
  <path class="cls-12" d="m208.94,281.03l145.66,26.35,21.27,39.42,21.27-39.42,145.66-26.35-.85-7.3-2.23.31-147.47,19.97-14.68,24.34c-.77,1.28-2.63,1.28-3.4,0l-14.68-24.34-147.47-19.97-2.23-.31-.85,7.3Z"/>
  <polygon class="cls-2" points="421.43 320.52 444.82 317.58 422.9 320.33 421.43 320.52"/>
  <path class="cls-8" d="m415.36,402.66c.3,3.03.6,6.07.89,9.12.15,1.53.3,3.05.44,4.57.14,1.52.28,3.05.43,4.58.1.98.19,1.96.28,2.94l.04.45.07.75v.12c.4,4.25.8,8.52,1.19,12.79.06.61.11,1.23.17,1.85.22,2.42.44,4.84.66,7.26.05.53.1,1.07.15,1.6.32,3.46.64,6.93.97,10.39.98,10.38,1.99,20.75,3.12,31.03h.03,0c.59,5.46,2.65,24.54,3.27,30.36.01,0,.01.03.01.04l-.05.02c.39,3.65.78,7.3,1.17,10.95.6,5.64,6.21,9.31,11.62,7.61,7.83-2.46,15.66-4.91,23.48-7.38-.03-.15-.06-.3-.09-.45-7.44-39.15-14.83-78.31-22.25-117.47l93.41-46,15.85-22.34,1.91-2.68-.58-12.07-.89-18.31c-.06-1.34-1.75-1.87-2.57-.82l-1.55,1.97-27.09,34.61c-23.36,14.85-62.25,31.61-90.42,46.74-.16.08-.3.17-.45.25-4.76,2.56-9.21,5.08-13.22,7.53Z"/>
  <path class="cls-1" d="m375.87,388.65l-20.58-44.06h0s-13.58-20.95-13.58-20.95l-1.16-1.79-10.24-1.33-1.47-.19-21.92-2.75-37.17-4.66-8.32-1.05-21.09-2.65.11.45,12.99,41.58,68.09,42.89c.55.33,1.09.66,1.63.99,4.76,2.56,9.21,5.08,13.22,7.53l.04-.03,39.45-13.98Z"/>
  <path class="cls-12" d="m269.75,312.92l5.73,20.12,28.12,16.15,51.69-4.6h0s-13.58-20.95-13.58-20.95l-1.16-1.79-.04-.05-3.12-.39-7.08-.89-1.47-.19-21.92-2.75-37.17-4.66Z"/>
  <polygon class="cls-5" points="341.36 337.95 335.23 326.64 284.86 319.83 290.46 332.1 309.13 340.87 341.36 337.95"/>
  <path class="cls-12" d="m70.64,163.11l40.82,131.69c.66,2.13,2.15,3.91,4.14,4.92l84.02,43.04.58-12.07c-25.7-14.15-51.83-28.52-77.52-42.65-.32-.77-47.87-114.89-48.12-115.54,0,0-3.91-9.39-3.91-9.39Z"/>
  <path class="cls-12" d="m205.2,313.53l27.09,34.61c23.36,14.85,62.25,31.61,90.42,46.74l-1.18-.74-68.09-42.89-12.99-41.58-.14-.45-34.12-4.29-.99,8.6Z"/>
  <path class="cls-14" d="m199.61,342.76l1.91,2.68,15.85,22.34,93.41,46c-7.42,39.16-14.81,78.32-22.25,117.47-.03.15-.06.3-.09.45,7.82,2.48,15.65,4.93,23.48,7.38,5.41,1.7,11.02-1.97,11.62-7.61.39-3.65.78-7.3,1.17-10.95l-.05-.02s0-.03.01-.04c.62-5.82,2.68-24.9,3.27-30.35v-.02h.03c1.13-10.27,2.14-20.64,3.12-31.02.33-3.46.65-6.93.97-10.39.05-.53.1-1.07.15-1.6.22-2.42.44-4.84.66-7.26.06-.62.11-1.24.17-1.85.39-4.27.79-8.54,1.18-12.79v-.12s.08-.75.08-.75l.04-.45c.09-.98.18-1.96.28-2.94.15-1.53.29-3.06.43-4.58.14-1.52.29-3.04.44-4.57.29-3.05.59-6.09.89-9.12-4.01-2.45-8.46-4.97-13.22-7.53-.15-.08-.29-.17-.45-.25-28.17-15.13-67.06-31.89-90.42-46.74l-27.09-34.61-1.55-1.97c-.82-1.05-2.51-.52-2.57.82l-.89,18.31-.58,12.07Z"/>
  <polygon class="cls-12" points="335.62 410.39 375.87 396.78 416.12 410.39 415.36 402.66 375.87 388.65 336.38 402.66 335.62 410.39"/>
  <path class="cls-6" d="m31.43,295.82c.82,5.98,3.83,11.44,8.46,15.31l141.12,118.09-20.62,38.89c-3.97,7.49-.39,16.77,7.59,19.65l120.55,43.49c7.44-39.15,14.83-78.31,22.25-117.47l-93.41-46-15.85-22.34-6.06,52.52c-30.69-24.39-134.39-106.77-134.38-106.77l-20.57-150.81c27.21-21.86,72.78-67.18,100.27-89.26-3.42,17.53-17.62,50.65-23.41,71.6-1.21,4.38-.88,9.04.95,13.2l38.4,87.12,18.04,8.97c11.54,5.75,25.8,12.84,33.77,16.8l.76-6.62c.49-4.23,4.22-7.33,8.47-7.04l119.45,8.33,35.31,37.5c1.82,1.93,4.89,1.93,6.71,0l35.31-37.5,119.45-8.33c4.25-.3,7.98,2.8,8.47,7.04l.76,6.62c7.97-3.96,22.23-11.05,33.77-16.8l18.04-8.97,38.4-87.12c1.83-4.16,2.16-8.82.95-13.2-5.79-20.95-19.99-54.07-23.41-71.6,27.49,22.08,73.06,67.4,100.27,89.26l-20.57,150.81s-103.69,82.38-134.38,106.77l-6.06-52.52-15.85,22.34-93.41,46c7.42,39.16,14.81,78.32,22.25,117.47l120.55-43.49c7.98-2.88,11.56-12.16,7.59-19.65l-20.62-38.89,141.12-118.09c4.63-3.87,7.64-9.33,8.46-15.31l21.23-155.61c1.07-7.81-2.04-15.61-8.19-20.55L600.6,13.07c-10.55-8.47-25.65,1.95-21.48,14.82l31.91,98.42-38.19,74.26c-.56.28-33.27,16.55-37.19,18.49h0c-.7-6.03-4.44-11.28-9.91-13.91l-88.68-42.57-40.53-121.8c-1.24-3.73-4.74-6.25-8.67-6.25h-23.97c-3.94,0-7.43,2.52-8.67,6.25l-40.53,121.8-88.68,42.57c-5.47,2.63-9.22,7.88-9.91,13.91h0c-3.92-1.94-36.63-18.21-37.19-18.49l-38.19-74.26,31.91-98.42c4.17-12.87-10.93-23.29-21.48-14.82L18.4,119.66c-6.15,4.94-9.26,12.73-8.19,20.55l21.23,155.61Zm296.71-92.88c2.1-7.4,37.12-130.96,41.56-146.64.27-.97,1.16-1.63,2.16-1.63h8.02c1.01,0,1.89.66,2.16,1.63,4.44,15.68,39.46,139.24,41.56,146.64l-47.73,30.47-47.73-30.47Z"/>
  <path class="cls-10" d="m375.87,54.67v178.74s-47.73-30.47-47.73-30.47l41.56-146.63c.27-.97,1.16-1.64,2.17-1.64h4Z"/>
</svg>