<?xml version="1.0" encoding="UTF-8"?>
<svg xmlns="http://www.w3.org/2000/svg" viewBox="0 0 459.31 453.88">
  <defs>
    <style>
      .cls-1, .cls-2 {
        opacity: .81;
      }

      .cls-3, .cls-4, .cls-5, .cls-6, .cls-7 {
        fill: #fff;
      }

      .cls-4 {
        opacity: .12;
      }

      .cls-8 {
        opacity: .31;
      }

      .cls-9, .cls-10, .cls-11, .cls-12, .cls-13 {
        fill: #3e479b;
      }

      .cls-9, .cls-14, .cls-15 {
        opacity: .39;
      }

      .cls-10, .cls-16 {
        opacity: .58;
      }

      .cls-17 {
        opacity: .28;
      }

      .cls-18, .cls-2, .cls-19 {
        fill: #e1e2fe;
      }

      .cls-18, .cls-20 {
        opacity: .47;
      }

      .cls-5 {
        opacity: .21;
      }

      .cls-6 {
        opacity: .76;
      }

      .cls-7, .cls-21 {
        opacity: .66;
      }

      .cls-14, .cls-22 {
        fill: #f7a9b4;
      }

      .cls-23 {
        opacity: .74;
      }

      .cls-23, .cls-15 {
        fill: #6d6cd4;
      }

      .cls-20, .cls-24 {
        fill: #ecf1f7;
      }

      .cls-11 {
        opacity: .43;
      }

      .cls-25 {
        fill: none;
      }

      .cls-26 {
        fill: #4c65ba;
      }

      .cls-27 {
        opacity: .41;
      }

      .cls-28 {
        fill: #6161b5;
      }

      .cls-29 {
        fill: #f28393;
      }

      .cls-16 {
        fill: #ef929c;
      }

      .cls-24 {
        opacity: .07;
      }

      .cls-30 {
        fill: #599af2;
      }

      .cls-13 {
        opacity: .14;
      }
    </style>
  </defs>
  <g id="BACKGROUND">
    <g>
      <g class="cls-27">
        <path class="cls-19" d="M459.08,275.95c.43-7.37,.24-14.78-.59-22.11-3.9-34.45-21.58-66.94-47.59-89.86-9.28-8.18-19.84-15.5-25.88-26.3-10.17-18.18-9.4-39.07-22.02-57.02-12.64-17.97-31.05-31.98-51.82-39.18-61.93-21.46-148.62,13.48-140.82,88.09,.03,.27,.06,.66,.09,1.15,1.04,15.5-11.13,28.53-26.61,28.9-57.14,1.36-106.32,45.41-116.84,101.21-6.77,35.89,4.31,75.22,30.56,100.6,19.59,18.95,45.88,29.36,72.19,36.51,52.74,14.34,108.24,17.35,162.62,11.86,50.9-5.13,104.59-19.77,137.51-58.93,17.56-20.89,27.62-47.68,29.2-74.94Z"/>
      </g>
      <g class="cls-8">
        <circle class="cls-19" cx="197.39" cy="22.86" r="13.29" transform="translate(143.34 214.08) rotate(-80.82)"/>
      </g>
      <g class="cls-8">
        <circle class="cls-19" cx="377.01" cy="14.75" r="6.86"/>
      </g>
      <g class="cls-8">
        <circle class="cls-19" cx="134.89" cy="52.62" r="9.19" transform="translate(51.2 170.77) rotate(-76)"/>
      </g>
      <g class="cls-8">
        <circle class="cls-19" cx="28.91" cy="385.95" r="20.93"/>
      </g>
    </g>
    <g>
      <g>
        <path class="cls-20" d="M453.39,59.42c5.97-11.62,1.38-25.88-10.24-31.84-11.62-5.97-33.95-5.53-39.92,6.09s11.92,21.59,19.21,32.43c10.17,15.11,24.98,4.94,30.94-6.68Z"/>
        <path class="cls-18" d="M402.58,416.57c8.41,5.43,19.62,3.01,25.05-5.4s6.78-25.46-1.62-30.89c-8.41-5.43-17.36,7.45-26.18,12.19-12.29,6.61-5.66,18.67,2.75,24.1Z"/>
        <path class="cls-18" d="M59.41,6.11C50.17-2.48,35.71-1.95,27.12,7.3c-8.59,9.25-14.02,30.13-4.77,38.72,9.25,8.59,23.2-5.44,35.19-9.39,16.72-5.51,11.13-21.94,1.88-30.53Z"/>
      </g>
      <g>
        <path class="cls-18" d="M8.44,105.94C.19,123.83-2.06,144.47,1.9,163.76c4.65,22.68,18.77,40.1,13.87,64.29-2.98,14.74-3.73,28.39-5.24,42.97-3.11,29.94,16.33,56.32,40.45,70.57,19.59,11.57,42.55,15.91,65.07,15.6,20.27-.28,40.5-4.02,60.14-9.05,18.93-4.85,37.43-11.24,57.27-9.22,16.5,1.68,31.36,8.81,46.73,14.13,36.69,12.7,81.12,14.49,114.67-4.84,21.53-12.41,36.6-32.55,43.28-54.22,5.34-17.31,6.02-33.5,2.02-51.18-4.11-18.15-11.05-36.44-8.9-55.35,1.5-13.18,7.53-25.89,6.42-39.11-.73-8.78-4.6-17.02-9.33-24.45-17.26-27.15-46.17-45.33-76.74-55.34-28.77-9.43-58.45-16.25-88.4-13.98-61.94,4.69-74.56-5.15-137.86-18.69C84.48,27.14,38.77,58.3,14.86,94.39c-2.44,3.68-4.58,7.54-6.42,11.54Z"/>
        <path class="cls-2" d="M51.05,133.83c-1.27,14.29,3.55,29.02-.48,43.17-4.82,16.95-18.79,29.64-24.48,46.28-8.41,24.58-8.01,52.13,2.21,76.09,4.92,11.55,12.11,22.27,21.93,29.69,15.14,11.44,34.97,13.95,53.63,12.5,27.76-2.16,57.06-14.18,84.97-10.9,15.4,1.81,20.11,18.48,28.06,29.48,9,12.44,21.25,22.21,34.8,28.71,24.95,11.98,54.9,13.11,80.4,2.25,27.23-11.6,50.96-39.91,49.4-71.94-.72-14.82-6.65-29.53-3.91-44.09,3.45-18.27,17.21-34.92,27.19-49.8,11.02-16.44,17.69-36.04,18.99-56.04,.01-.23,.03-.45,.04-.68,2.05-34.5-19.72-65.97-52.55-76.77,0,0-69.86-22.98-69.86-22.98-70.89-23.31-141.71-22.54-206.89,11.67-14.1,7.4-37.07,29.46-41.8,44.67-.89,2.87-1.4,5.77-1.66,8.68Z"/>
      </g>
    </g>
    <circle class="cls-10" cx="447.53" cy="359.05" r="4.5"/>
    <circle class="cls-10" cx="239.65" cy="8.33" r="4.5"/>
    <circle class="cls-10" cx="77.08" cy="400.55" r="4.5"/>
    <circle class="cls-16" cx="361.11" cy="419.47" r="3.5"/>
    <circle class="cls-10" cx="57.22" cy="84.97" r="1.5"/>
    <path class="cls-16" d="M376.74,40.23c-.62,2.92-3.49,4.78-6.41,4.16-2.92-.62-4.78-3.49-4.16-6.41,.62-2.92,3.49-4.78,6.41-4.16,2.92,.62,4.78,3.49,4.16,6.41Z"/>
    <path class="cls-16" d="M87.95,15.4c-.24,1.14-1.37,1.87-2.52,1.63-1.14-.24-1.87-1.37-1.63-2.52,.24-1.14,1.37-1.87,2.52-1.63,1.14,.24,1.87,1.37,1.63,2.52Z"/>
    <path class="cls-10" d="M425.71,6.49c-.21,.97-1.16,1.59-2.14,1.39s-1.59-1.16-1.39-2.14c.21-.97,1.16-1.59,2.14-1.39,.97,.21,1.59,1.16,1.39,2.14Z"/>
    <path class="cls-10" d="M44.65,436.12c-.21,.97-1.16,1.59-2.14,1.39s-1.59-1.16-1.39-2.14c.21-.97,1.16-1.59,2.14-1.39,.97,.21,1.59,1.16,1.39,2.14Z"/>
  </g>
  <g id="OBJECTS">
    <g>
      <g class="cls-21">
        <g>
          <path class="cls-3" d="M174.29,167.23l-7.96-.61c-.61-5.99-2.51-11.64-5.45-16.64l6.06-5.2c3.07-2.63,3.42-7.25,.79-10.32-2.63-3.07-7.25-3.42-10.32-.79l-6.06,5.2c-4.49-3.66-9.79-6.4-15.62-7.91l.61-7.96c.31-4.03-2.71-7.55-6.74-7.86h0c-4.03-.31-7.55,2.71-7.86,6.74l-.61,7.96c-5.99,.61-11.64,2.51-16.64,5.45l-5.2-6.06c-2.63-3.07-7.25-3.42-10.32-.79-3.07,2.63-3.42,7.25-.79,10.32l5.2,6.06c-3.66,4.49-6.4,9.79-7.91,15.62l-7.96-.61c-4.03-.31-7.55,2.71-7.86,6.74h0c-.31,4.03,2.71,7.55,6.74,7.86l7.96,.61c.61,5.99,2.51,11.64,5.45,16.64l-6.06,5.2c-3.07,2.63-3.42,7.25-.79,10.32,2.63,3.07,7.25,3.42,10.32,.79l6.06-5.2c4.49,3.66,9.79,6.4,15.62,7.91l-.61,7.96c-.31,4.03,2.71,7.55,6.74,7.86h0c4.03,.31,7.55-2.71,7.86-6.74l.61-7.96c5.99-.61,11.64-2.51,16.64-5.45l5.2,6.06c2.63,3.07,7.25,3.42,10.32,.79,3.07-2.63,3.42-7.25,.79-10.32l-5.2-6.06c3.66-4.49,6.4-9.79,7.91-15.62l7.96,.61c4.03,.31,7.55-2.71,7.86-6.74h0c.31-4.03-2.71-7.55-6.74-7.86Zm-51.21,33.34c-16.42-1.25-28.72-15.58-27.46-32.01,1.25-16.42,15.58-28.72,32.01-27.46,16.42,1.25,28.72,15.58,27.46,32.01s-15.58,28.72-32.01,27.46Z"/>
          <path class="cls-3" d="M344.32,391.64c-.96,0-1.92-.23-2.8-.69-1.45-.75-2.51-2.02-3-3.57l-1.43-4.51c-3.7,.38-7.37,.06-10.94-.94l-2.18,4.2c-1.55,2.98-5.24,4.15-8.22,2.6-1.45-.75-2.51-2.02-3-3.57-.49-1.55-.35-3.2,.4-4.65l2.18-4.2c-2.88-2.34-5.25-5.17-7.07-8.4l-4.51,1.43c-3.21,1.02-6.64-.77-7.66-3.97-.49-1.55-.35-3.2,.4-4.65,.75-1.45,2.02-2.51,3.57-3l4.51-1.43c-.38-3.69-.06-7.37,.94-10.94l-4.2-2.18c-1.45-.75-2.51-2.02-3-3.57-.49-1.55-.35-3.2,.4-4.65,.75-1.45,2.02-2.51,3.57-3,1.55-.49,3.2-.35,4.65,.4l4.2,2.18c2.34-2.88,5.16-5.25,8.4-7.07l-1.43-4.51c-1.01-3.21,.77-6.64,3.97-7.66,1.55-.49,3.2-.35,4.65,.4,1.45,.75,2.51,2.02,3,3.57l1.43,4.51c3.7-.38,7.37-.06,10.94,.94l2.18-4.2c1.55-2.98,5.24-4.15,8.22-2.6,2.98,1.55,4.15,5.24,2.6,8.22l-2.18,4.2c2.88,2.34,5.25,5.17,7.07,8.4l4.51-1.43c1.55-.49,3.2-.35,4.65,.4,1.45,.75,2.51,2.02,3,3.57,1.01,3.21-.77,6.64-3.97,7.66l-4.51,1.43c.38,3.69,.06,7.37-.94,10.94l4.2,2.18c2.98,1.55,4.15,5.24,2.6,8.22-.75,1.45-2.02,2.51-3.57,3-1.55,.49-3.2,.35-4.65-.4l-4.2-2.18c-2.35,2.88-5.17,5.25-8.4,7.07l1.43,4.51c.49,1.55,.35,3.21-.4,4.65-.75,1.45-2.02,2.51-3.57,3-.61,.19-1.23,.29-1.85,.29Zm-5.83-10.96l1.93,6.1c.33,1.04,1.05,1.9,2.02,2.4,.97,.5,2.08,.6,3.13,.27,1.04-.33,1.9-1.05,2.4-2.02s.6-2.08,.27-3.13l-1.93-6.1,.74-.39c3.54-1.86,6.57-4.41,9.01-7.58l.51-.66,5.68,2.95c.97,.5,2.08,.6,3.13,.27,1.04-.33,1.9-1.05,2.4-2.02,1.04-2,.26-4.48-1.75-5.53l-5.68-2.95,.25-.8c1.19-3.82,1.53-7.76,1.01-11.73l-.11-.83,6.1-1.93c2.15-.68,3.35-2.99,2.67-5.15-.33-1.04-1.05-1.9-2.02-2.4-.97-.5-2.08-.6-3.12-.27l-6.1,1.93-.39-.74c-1.86-3.54-4.41-6.57-7.58-9.01l-.66-.51,2.95-5.68c1.04-2.01,.26-4.49-1.75-5.53-2.01-1.04-4.49-.26-5.53,1.75l-2.95,5.68-.8-.25c-3.82-1.19-7.76-1.52-11.73-1.01l-.83,.11-1.93-6.1c-.33-1.04-1.05-1.9-2.02-2.4-.97-.5-2.08-.6-3.13-.27-2.15,.68-3.35,2.99-2.67,5.15l1.93,6.1-.74,.39c-3.54,1.86-6.57,4.41-9.01,7.58l-.51,.66-5.68-2.95c-.97-.5-2.08-.6-3.12-.27-1.04,.33-1.9,1.05-2.4,2.02-.5,.97-.6,2.08-.27,3.12,.33,1.04,1.05,1.9,2.02,2.4l5.68,2.95-.25,.8c-1.19,3.82-1.53,7.76-1.01,11.73l.11,.83-6.1,1.93c-1.04,.33-1.9,1.05-2.4,2.02-.5,.97-.6,2.08-.27,3.13,.68,2.15,2.99,3.35,5.15,2.67l6.1-1.93,.39,.74c1.86,3.54,4.41,6.57,7.58,9.01l.66,.51-2.95,5.68c-.5,.97-.6,2.08-.27,3.12,.33,1.04,1.05,1.9,2.02,2.4,2.01,1.04,4.49,.25,5.53-1.75l2.95-5.68,.8,.25c3.82,1.19,7.76,1.52,11.72,1.01l.83-.11Zm-4.39-5.58c-3.44,0-6.86-.83-10.01-2.46-5.16-2.68-8.97-7.21-10.73-12.75-1.76-5.54-1.25-11.44,1.43-16.6,2.68-5.16,7.21-8.97,12.75-10.73,5.55-1.76,11.44-1.25,16.6,1.43,5.16,2.68,8.97,7.21,10.73,12.75,1.76,5.54,1.25,11.44-1.43,16.6s-7.21,8.97-12.75,10.73c-2.17,.69-4.39,1.03-6.6,1.03Zm.05-41.57c-2.01,0-4.02,.31-5.99,.93-5.04,1.59-9.15,5.05-11.58,9.74-2.43,4.69-2.9,10.04-1.3,15.08,1.59,5.04,5.05,9.15,9.74,11.58,4.69,2.43,10.05,2.89,15.08,1.3,5.04-1.59,9.15-5.05,11.58-9.74,2.43-4.69,2.9-10.04,1.3-15.08-1.59-5.04-5.05-9.15-9.74-11.58-2.86-1.48-5.96-2.23-9.09-2.23Z"/>
          <path class="cls-3" d="M396.84,354.31c-.37,0-.75-.03-1.13-.08-4.29-.62-7.27-4.62-6.64-8.9l.96-6.58c-4.84-1.73-9.22-4.33-13.04-7.76l-5.33,3.97c-1.68,1.25-3.75,1.78-5.83,1.48-2.08-.3-3.91-1.39-5.16-3.07-2.59-3.47-1.87-8.4,1.6-10.99l5.33-3.97c-2.2-4.64-3.45-9.58-3.73-14.71l-6.58-.96c-4.29-.62-7.27-4.62-6.64-8.9,.3-2.08,1.39-3.91,3.07-5.17,1.68-1.25,3.75-1.78,5.83-1.48l6.58,.96c1.73-4.84,4.33-9.22,7.76-13.04l-3.97-5.32c-1.25-1.68-1.78-3.75-1.48-5.83,.3-2.08,1.39-3.91,3.08-5.17,1.68-1.25,3.75-1.78,5.83-1.48,2.08,.3,3.91,1.39,5.16,3.08l3.97,5.32c4.64-2.2,9.58-3.45,14.71-3.73l.96-6.58c.62-4.29,4.63-7.27,8.9-6.64,2.08,.3,3.91,1.39,5.16,3.07,1.25,1.68,1.78,3.75,1.48,5.83l-.96,6.58c4.84,1.73,9.22,4.33,13.04,7.76l5.33-3.97c3.47-2.59,8.4-1.88,10.99,1.6,2.59,3.47,1.87,8.4-1.6,10.99l-5.32,3.97c2.2,4.64,3.45,9.58,3.73,14.71l6.58,.96c4.29,.62,7.26,4.62,6.64,8.9-.62,4.29-4.62,7.27-8.9,6.64l-6.58-.95c-1.73,4.84-4.33,9.22-7.76,13.04l3.97,5.33c2.59,3.47,1.87,8.4-1.6,10.99-1.68,1.25-3.75,1.78-5.83,1.48-2.08-.3-3.91-1.39-5.17-3.08l-3.97-5.32c-4.64,2.2-9.58,3.45-14.71,3.73l-.96,6.58c-.57,3.9-3.93,6.72-7.77,6.73Zm-19.73-25.92l.61,.57c3.96,3.7,8.57,6.45,13.72,8.17l.79,.26-1.19,8.22c-.46,3.19,1.76,6.17,4.95,6.63,3.19,.46,6.17-1.76,6.63-4.95l1.19-8.22,.84-.03c5.42-.18,10.63-1.5,15.47-3.93l.75-.37,4.97,6.66c.93,1.25,2.3,2.07,3.85,2.29,1.55,.23,3.09-.17,4.34-1.1,2.59-1.93,3.12-5.61,1.19-8.19l-4.97-6.66,.57-.61c3.7-3.95,6.45-8.57,8.17-13.72l.26-.79,8.22,1.19c3.2,.46,6.17-1.76,6.63-4.95,.46-3.19-1.76-6.17-4.95-6.63l-8.22-1.19-.03-.84c-.18-5.42-1.5-10.63-3.93-15.47l-.37-.75,6.66-4.97c2.59-1.93,3.12-5.6,1.19-8.19-.93-1.25-2.3-2.07-3.85-2.29-1.55-.23-3.09,.17-4.34,1.1h0l-6.66,4.97-.61-.57c-3.96-3.7-8.57-6.45-13.72-8.17l-.79-.26,1.19-8.22c.22-1.55-.17-3.09-1.1-4.34-.94-1.25-2.3-2.07-3.85-2.29-3.2-.47-6.17,1.76-6.63,4.95l-1.19,8.22-.84,.03c-5.42,.18-10.63,1.5-15.47,3.93l-.75,.37-4.97-6.66c-.93-1.25-2.3-2.07-3.85-2.29-1.55-.22-3.09,.17-4.34,1.1-1.25,.93-2.07,2.3-2.29,3.85-.22,1.55,.17,3.09,1.1,4.34l4.97,6.66-.57,.61c-3.7,3.96-6.45,8.57-8.17,13.72l-.26,.79-8.22-1.19c-1.54-.22-3.09,.17-4.34,1.1-1.25,.93-2.07,2.3-2.29,3.85-.46,3.19,1.76,6.17,4.95,6.63l8.22,1.19,.03,.84c.18,5.42,1.5,10.63,3.93,15.47l.37,.75-6.66,4.97c-1.25,.93-2.07,2.3-2.29,3.85-.22,1.55,.17,3.09,1.1,4.34,.93,1.25,2.3,2.07,3.85,2.29,1.55,.22,3.09-.17,4.34-1.1l6.66-4.97Zm26.29,2.01c-8.82,0-17.54-4.01-23.21-11.61-9.54-12.78-6.9-30.94,5.88-40.48,6.19-4.62,13.81-6.55,21.45-5.44,7.65,1.11,14.4,5.13,19.02,11.32,4.62,6.19,6.55,13.81,5.44,21.45-1.11,7.65-5.13,14.4-11.32,19.02h0c-5.18,3.87-11.25,5.73-17.26,5.73Zm-.09-55.83c-5.76,0-11.34,1.84-16.04,5.35-11.9,8.88-14.35,25.78-5.47,37.68,8.88,11.9,25.78,14.35,37.68,5.47h0c5.76-4.3,9.5-10.59,10.54-17.7,1.03-7.12-.77-14.21-5.07-19.97s-10.59-9.51-17.7-10.54c-1.31-.19-2.62-.29-3.93-.29Zm16.76,49.3h0Z"/>
        </g>
      </g>
      <g>
        <g class="cls-1">
          <path class="cls-3" d="M267.54,358.34h-20.54c-.55,0-1-.45-1-1s.45-1,1-1h20.54c.55,0,1,.45,1,1s-.45,1-1,1Z"/>
          <path class="cls-3" d="M267.54,379.69h-20.54c-.55,0-1-.45-1-1s.45-1,1-1h20.54c.55,0,1,.45,1,1s-.45,1-1,1Z"/>
          <g>
            <g>
              <path class="cls-3" d="M283.04,401.25h-126.87c-1.5,0-2.71-1.22-2.71-2.71v-65.85c0-1.5,1.22-2.71,2.71-2.71h126.87c1.5,0,2.71,1.22,2.71,2.71v65.85c0,1.5-1.22,2.71-2.71,2.71Zm-126.87-69.27c-.39,0-.71,.32-.71,.71v65.85c0,.39,.32,.71,.71,.71h126.87c.39,0,.71-.32,.71-.71v-65.85c0-.39-.32-.71-.71-.71h-126.87Z"/>
              <path class="cls-7" d="M283.04,401.25h-126.87c-1.5,0-2.71-1.22-2.71-2.71v-65.85c0-1.5,1.22-2.71,2.71-2.71h126.87c1.5,0,2.71,1.22,2.71,2.71v65.85c0,1.5-1.22,2.71-2.71,2.71Zm-126.87-69.27c-.39,0-.71,.32-.71,.71v65.85c0,.39,.32,.71,.71,.71h126.87c.39,0,.71-.32,.71-.71v-65.85c0-.39-.32-.71-.71-.71h-126.87Z"/>
            </g>
            <path class="cls-3" d="M267.54,347.97h-97.89c-.55,0-1-.45-1-1s.45-1,1-1h97.89c.55,0,1,.45,1,1s-.45,1-1,1Z"/>
            <path class="cls-3" d="M267.54,368.7h-97.89c-.55,0-1-.45-1-1s.45-1,1-1h97.89c.55,0,1,.45,1,1s-.45,1-1,1Z"/>
            <path class="cls-3" d="M222.42,358.34h-52.78c-.55,0-1-.45-1-1s.45-1,1-1h52.78c.55,0,1,.45,1,1s-.45,1-1,1Z"/>
            <path class="cls-3" d="M222.42,379.69h-52.78c-.55,0-1-.45-1-1s.45-1,1-1h52.78c.55,0,1,.45,1,1s-.45,1-1,1Z"/>
            <path class="cls-3" d="M205.24,389.58h-35.59c-.55,0-1-.45-1-1s.45-1,1-1h35.59c.55,0,1,.45,1,1s-.45,1-1,1Z"/>
          </g>
        </g>
        <g class="cls-1">
          <path class="cls-3" d="M70.99,294.31h-23.09c-.55,0-1-.45-1-1s.45-1,1-1h23.09c.55,0,1,.45,1,1s-.45,1-1,1Z"/>
          <path class="cls-3" d="M70.99,270.31h-23.09c-.55,0-1-.45-1-1s.45-1,1-1h23.09c.55,0,1,.45,1,1s-.45,1-1,1Z"/>
          <g>
            <g>
              <path class="cls-3" d="M173.28,323.93H30.27c-1.5,0-2.71-1.22-2.71-2.71v-74.43c0-1.5,1.22-2.71,2.71-2.71H173.28c1.5,0,2.71,1.22,2.71,2.71v74.43c0,1.5-1.22,2.71-2.71,2.71ZM30.27,246.07c-.39,0-.71,.32-.71,.71v74.43c0,.39,.32,.71,.71,.71H173.28c.39,0,.71-.32,.71-.71v-74.43c0-.39-.32-.71-.71-.71H30.27Z"/>
              <path class="cls-7" d="M173.28,323.93H30.27c-1.5,0-2.71-1.22-2.71-2.71v-74.43c0-1.5,1.22-2.71,2.71-2.71H173.28c1.5,0,2.71,1.22,2.71,2.71v74.43c0,1.5-1.22,2.71-2.71,2.71ZM30.27,246.07c-.39,0-.71,.32-.71,.71v74.43c0,.39,.32,.71,.71,.71H173.28c.39,0,.71-.32,.71-.71v-74.43c0-.39-.32-.71-.71-.71H30.27Z"/>
            </g>
            <path class="cls-3" d="M157.93,305.96H47.91c-.55,0-1-.45-1-1s.45-1,1-1h110.02c.55,0,1,.45,1,1s-.45,1-1,1Z"/>
            <path class="cls-3" d="M157.93,282.66H47.91c-.55,0-1-.45-1-1s.45-1,1-1h110.02c.55,0,1,.45,1,1s-.45,1-1,1Z"/>
            <path class="cls-3" d="M157.93,294.31h-59.32c-.55,0-1-.45-1-1s.45-1,1-1h59.32c.55,0,1,.45,1,1s-.45,1-1,1Z"/>
            <path class="cls-3" d="M157.93,270.31h-59.32c-.55,0-1-.45-1-1s.45-1,1-1h59.32c.55,0,1,.45,1,1s-.45,1-1,1Z"/>
            <path class="cls-3" d="M157.93,259.19h-40c-.55,0-1-.45-1-1s.45-1,1-1h40c.55,0,1,.45,1,1s-.45,1-1,1Z"/>
          </g>
        </g>
      </g>
    </g>
    <g>
      <g>
        <rect class="cls-13" x="241.81" y="190.37" width="176.9" height="130.91" rx="1.85" ry="1.85" transform="translate(-58.22 409.44) rotate(-59.34)"/>
        <rect class="cls-22" x="238.97" y="184.4" width="176.9" height="130.91" rx="1.85" ry="1.85" transform="translate(-54.48 404.07) rotate(-59.34)"/>
      </g>
      <g>
        <path class="cls-13" d="M368.45,356.54l-125.1-23.06c-1.01-.19-1.67-1.15-1.49-2.16l31.4-170.33c.19-1.01,1.15-1.67,2.16-1.49l125.1,23.06c1.01,.19,1.67,1.15,1.49,2.16l-31.4,170.33c-.19,1.01-1.15,1.67-2.16,1.49Z"/>
        <rect class="cls-3" x="230.81" y="187.79" width="176.9" height="130.91" transform="translate(12.34 521.31) rotate(-79.56)"/>
        <rect class="cls-14" x="230.81" y="187.79" width="176.9" height="130.91" rx="1.85" ry="1.85" transform="translate(12.34 521.31) rotate(-79.56)"/>
        <path class="cls-3" d="M380.18,198.61c-.06,0-.12,0-.18-.02l-31.31-5.77c-.54-.1-.9-.62-.8-1.16s.62-.9,1.17-.8l31.31,5.77c.54,.1,.9,.62,.8,1.16-.09,.48-.51,.82-.98,.82Z"/>
        <path class="cls-3" d="M378.34,208.62c-.06,0-.12,0-.18-.02l-31.31-5.77c-.54-.1-.9-.62-.8-1.16,.1-.54,.62-.9,1.16-.8l31.31,5.77c.54,.1,.9,.62,.8,1.16-.09,.48-.51,.82-.98,.82Z"/>
        <path class="cls-3" d="M376.34,219.49c-.06,0-.12,0-.18-.02l-31.31-5.77c-.54-.1-.9-.62-.8-1.16,.1-.54,.61-.9,1.16-.8l31.31,5.77c.54,.1,.9,.62,.8,1.16-.09,.48-.51,.82-.98,.82Z"/>
        <g>
          <rect class="cls-13" x="275.4" y="163.69" width="62.68" height="58.56" rx="2" ry="2" transform="translate(61.37 459.65) rotate(-79.56)"/>
          <rect class="cls-30" x="275.96" y="163.38" width="59.56" height="56.02" rx="2" ry="2" transform="translate(62.1 457.37) rotate(-79.56)"/>
          <path class="cls-24" d="M337.37,174.3l-55.09-10.15,.96-5.21c.19-1.06,1.21-1.76,2.27-1.56l51.33,9.46c1.02,.19,1.69,1.17,1.5,2.18l-.97,5.28Z"/>
          <path class="cls-12" d="M297.69,191.32c-.39,0-.78-.04-1.18-.11l-.76-.14c-4.05-.75-6.74-4.65-5.99-8.7l1.92-10.44c.15-.82,.94-1.35,1.75-1.2,.82,.15,1.35,.93,1.2,1.75l-1.92,10.44c-.45,2.42,1.16,4.76,3.58,5.21l.76,.14c1.88,.35,3.7-.9,4.05-2.79l4.87-26.42c.36-1.94-.93-3.82-2.88-4.18l-1.3-.24c-2.07-.38-4.05,.99-4.44,3.05l-.12,.65c-.15,.82-.94,1.35-1.75,1.2-.81-.15-1.35-.93-1.2-1.75l.12-.65c.68-3.69,4.24-6.14,7.93-5.46l1.3,.24c3.57,.66,5.94,4.1,5.28,7.67l-4.87,26.42c-.58,3.12-3.3,5.3-6.37,5.3Z"/>
          <path class="cls-3" d="M302.9,169.13s-.06,0-.09,0l-19.99-3.68c-.27-.05-.45-.31-.4-.58,.05-.27,.31-.46,.58-.4l19.99,3.68c.27,.05,.45,.31,.4,.58-.04,.24-.25,.41-.49,.41Z"/>
        </g>
        <g>
          <path class="cls-3" d="M364.02,272.47c-.06,0-.12,0-.18-.02l-95.68-17.64c-.54-.1-.9-.62-.8-1.16,.1-.54,.61-.9,1.16-.8l95.68,17.64c.54,.1,.9,.62,.8,1.16-.09,.48-.51,.82-.98,.82Z"/>
          <path class="cls-3" d="M357.18,309.58c-.06,0-.12,0-.18-.02l-95.68-17.64c-.54-.1-.9-.62-.8-1.17,.1-.54,.62-.91,1.16-.8l95.68,17.64c.54,.1,.9,.62,.8,1.17-.09,.48-.51,.82-.98,.82Z"/>
          <path class="cls-3" d="M310.15,281.72c-.06,0-.12,0-.18-.02l-45.23-8.34c-.54-.1-.9-.62-.8-1.16,.1-.54,.62-.91,1.16-.8l45.23,8.34c.54,.1,.9,.62,.8,1.17-.09,.48-.51,.82-.98,.82Z"/>
          <path class="cls-3" d="M316.38,247.91c-.06,0-.12,0-.18-.02l-45.23-8.34c-.54-.1-.9-.62-.8-1.16,.1-.54,.62-.9,1.16-.8l45.23,8.34c.54,.1,.9,.62,.8,1.17-.09,.48-.51,.82-.98,.82Z"/>
          <path class="cls-3" d="M360.63,290.88c-.06,0-.12,0-.18-.02l-43.1-7.94c-.54-.1-.9-.62-.8-1.17,.1-.54,.61-.9,1.17-.8l43.1,7.94c.54,.1,.9,.62,.8,1.17-.09,.48-.51,.82-.98,.82Z"/>
        </g>
      </g>
      <g>
        <rect class="cls-30" x="293.98" y="69.87" width="59.85" height="24.45" rx="3.33" ry="3.33"/>
        <rect class="cls-22" x="312.84" y="87.86" width="81.05" height="33.12" rx="3.33" ry="3.33"/>
        <g>
          <g>
            <rect class="cls-3" x="328.12" y="113.98" width="91.42" height="34.28" rx="4.52" ry="4.52"/>
            <rect class="cls-23" x="328.12" y="113.98" width="91.42" height="34.28" rx="4.52" ry="4.52"/>
          </g>
          <g>
            <path class="cls-3" d="M390.52,135.14c-2.19,0-3.97-1.78-3.97-3.97s1.78-3.97,3.97-3.97,3.97,1.78,3.97,3.97-1.78,3.97-3.97,3.97Zm0-6.94c-1.64,0-2.97,1.33-2.97,2.97s1.33,2.97,2.97,2.97,2.97-1.33,2.97-2.97-1.33-2.97-2.97-2.97Z"/>
            <path class="cls-3" d="M374.14,135.14c-2.19,0-3.97-1.78-3.97-3.97s1.78-3.97,3.97-3.97,3.97,1.78,3.97,3.97-1.78,3.97-3.97,3.97Zm0-6.94c-1.64,0-2.97,1.33-2.97,2.97s1.33,2.97,2.97,2.97,2.97-1.33,2.97-2.97-1.33-2.97-2.97-2.97Z"/>
            <path class="cls-3" d="M358.86,135.14c-2.19,0-3.97-1.78-3.97-3.97s1.78-3.97,3.97-3.97,3.97,1.78,3.97,3.97-1.78,3.97-3.97,3.97Zm0-6.94c-1.64,0-2.97,1.33-2.97,2.97s1.33,2.97,2.97,2.97,2.97-1.33,2.97-2.97-1.33-2.97-2.97-2.97Z"/>
          </g>
        </g>
      </g>
    </g>
    <g>
      <path class="cls-3" d="M132.25,72.27h127.64c2.57,0,4.66,2.08,4.66,4.66v188c0,8.87-7.19,16.06-16.06,16.06h-88.63c-18.9,0-34.22-15.32-34.22-34.22V78.88c0-3.65,2.96-6.61,6.61-6.61Z"/>
      <path class="cls-15" d="M127.27,72.27h134.78c1.38,0,2.5,1.12,2.5,2.5v190.91c0,8.46-6.85,15.31-15.31,15.31h-92.42c-17.22,0-31.18-13.96-31.18-31.18V73.89c0-.9,.73-1.62,1.62-1.62Z"/>
      <path class="cls-9" d="M139.09,72.27h123.49c1.09,0,1.97,.88,1.97,1.97v191.96c0,8.17-6.62,14.79-14.79,14.79h-81.12c-16.93,0-30.66-13.72-30.66-30.66V73.37c0-.61,.49-1.1,1.1-1.1Z"/>
      <path class="cls-28" d="M157.37,280.95v.04h111.57c12.84,0,23.25-10.41,23.25-23.25v-8.83h-112.83v8.83c0,12.42-9.73,22.56-21.99,23.22Z"/>
      <g class="cls-17">
        <path class="cls-12" d="M172.16,280.95v.04h99.33c11.43,0,20.7-10.41,20.7-23.25v-8.83h-100.45v8.83c0,12.42-8.67,22.56-19.58,23.22Z"/>
      </g>
      <g>
        <path class="cls-3" d="M243.47,224.85h-80.22c-.55,0-1-.45-1-1s.45-1,1-1h80.22c.55,0,1,.45,1,1s-.45,1-1,1Z"/>
        <path class="cls-3" d="M245.15,191.07h-83.4c-.55,0-1-.45-1-1s.45-1,1-1h83.4c.55,0,1,.45,1,1s-.45,1-1,1Z"/>
        <path class="cls-3" d="M203.36,207.94h-42.62c-.55,0-1-.45-1-1s.45-1,1-1h42.62c.55,0,1,.45,1,1s-.45,1-1,1Z"/>
        <path class="cls-3" d="M200.13,207.94h-36.16c-.55,0-1-.45-1-1s.45-1,1-1h36.16c.55,0,1,.45,1,1s-.45,1-1,1Z"/>
        <path class="cls-3" d="M217.23,154.96h-54.9c-.55,0-1-.45-1-1s.45-1,1-1h54.9c.55,0,1,.45,1,1s-.45,1-1,1Z"/>
        <path class="cls-3" d="M242.68,154.96h-16.72c-.55,0-1-.45-1-1s.45-1,1-1h16.72c.55,0,1,.45,1,1s-.45,1-1,1Z"/>
        <path class="cls-3" d="M245.15,171.83h-59.45c-.55,0-1-.45-1-1s.45-1,1-1h59.45c.55,0,1,.45,1,1s-.45,1-1,1Z"/>
        <path class="cls-3" d="M179.83,171.83h-18.08c-.55,0-1-.45-1-1s.45-1,1-1h18.08c.55,0,1,.45,1,1s-.45,1-1,1Z"/>
        <path class="cls-3" d="M243.47,140.67h-80.22c-.55,0-1-.45-1-1s.45-1,1-1h80.22c.55,0,1,.45,1,1s-.45,1-1,1Z"/>
        <path class="cls-3" d="M243.47,106.89h-80.22c-.55,0-1-.45-1-1s.45-1,1-1h80.22c.55,0,1,.45,1,1s-.45,1-1,1Z"/>
        <path class="cls-3" d="M192.69,123.77h-30.36c-.55,0-1-.45-1-1s.45-1,1-1h30.36c.55,0,1,.45,1,1s-.45,1-1,1Z"/>
        <path class="cls-3" d="M242.86,123.77h-36.16c-.55,0-1-.45-1-1s.45-1,1-1h36.16c.55,0,1,.45,1,1s-.45,1-1,1Z"/>
      </g>
    </g>
    <g>
      <g>
        <circle class="cls-5" cx="305.97" cy="195.87" r="63.29" transform="translate(-48.88 273.72) rotate(-45)"/>
        <path class="cls-6" d="M256.38,200.42c-2.21,0-4-1.79-4-4,0-31.93,25.98-57.9,57.9-57.9,2.21,0,4,1.79,4,4s-1.79,4-4,4c-27.52,0-49.9,22.39-49.9,49.9,0,2.21-1.79,4-4,4Z"/>
        <path class="cls-10" d="M305.97,261.16c-36,0-65.29-29.29-65.29-65.29s29.29-65.29,65.29-65.29,65.29,29.29,65.29,65.29-29.29,65.29-65.29,65.29Zm0-126.58c-33.8,0-61.29,27.5-61.29,61.29s27.5,61.29,61.29,61.29,61.29-27.5,61.29-61.29-27.5-61.29-61.29-61.29Z"/>
        <g>
          <g>
            <circle class="cls-25" cx="305.97" cy="195.87" r="63.29"/>
            <g>
              <path class="cls-12" d="M364.15,241.22c.09-.09,.2-.17,.3-.25,9.64-12.48,15.38-28.12,15.38-45.1,0-40.79-33.07-73.86-73.86-73.86s-73.86,33.07-73.86,73.86,33.07,73.86,73.86,73.86c16.92,0,32.49-5.71,44.94-15.28l8.54-8.54,4.69-4.69Zm-58.17,17.94c-34.96,0-63.29-28.34-63.29-63.29s28.34-63.29,63.29-63.29,63.29,28.34,63.29,63.29-28.34,63.29-63.29,63.29Z"/>
              <path class="cls-12" d="M305.97,270.73c-41.28,0-74.86-33.58-74.86-74.86s33.58-74.86,74.86-74.86,74.86,33.58,74.86,74.86c0,16.7-5.39,32.51-15.59,45.71l-.19,.19c-.1,.07-.15,.11-.19,.15l-13.33,13.32c-13.18,10.13-28.93,15.48-45.55,15.48Zm0-147.72c-40.17,0-72.86,32.68-72.86,72.86s32.68,72.86,72.86,72.86c16.15,0,31.46-5.2,44.28-15.03l13.19-13.19c.09-.09,.19-.18,.3-.25,9.87-12.83,15.09-28.18,15.09-44.39,0-40.17-32.68-72.86-72.86-72.86Zm0,137.15c-35.45,0-64.29-28.84-64.29-64.29s28.84-64.29,64.29-64.29,64.29,28.84,64.29,64.29-28.84,64.29-64.29,64.29Zm0-126.58c-34.35,0-62.29,27.94-62.29,62.29s27.94,62.29,62.29,62.29,62.29-27.94,62.29-62.29-27.94-62.29-62.29-62.29Z"/>
            </g>
            <path class="cls-26" d="M362.32,252.76l-2.86-2.86c-1.1-1.1-1.1-2.89,0-3.99l-8.54,8.54-.14,.14c-1.1,1.1-1.1,2.89,0,3.99l3.48,3.48c1.15-1.92,4.5-5.68,8.07-9.3Z"/>
            <path class="cls-26" d="M359.46,245.91c-1.1,1.1-1.1,2.89,0,3.99l2.86,2.86c3.46-3.49,7.1-6.83,9.15-8.22l-3.33-3.33c-1.01-1.01-2.59-1.08-3.69-.25-.1,.08-.21,.15-.3,.25l-4.69,4.69Z"/>
            <path class="cls-11" d="M359.46,245.91c-1.1,1.1-1.1,2.89,0,3.99l2.86,2.86c3.46-3.49,7.1-6.83,9.15-8.22l-3.33-3.33c-1.01-1.01-2.59-1.08-3.69-.25-.1,.08-.21,.15-.3,.25l-4.69,4.69Z"/>
            <path class="cls-30" d="M425.06,296.51l-52.01-52.58c-.19-.19-.76,.06-1.57,.62-2.05,1.39-5.69,4.72-9.15,8.22-3.57,3.61-6.92,7.37-8.07,9.3-.37,.63-.52,1.06-.35,1.22l52.01,52.58c5.29,5.35,13.86,5.35,19.15,0,5.29-5.35,5.29-14.01,0-19.36Z"/>
          </g>
          <path class="cls-13" d="M425.06,296.51l-52.01-52.58c-.7-.71-6.63,4.6-11.72,9.85-4.33,4.46,58.44,67.43,63.73,62.09h0c5.29-5.35,5.29-14.01,0-19.36Z"/>
        </g>
      </g>
      <g>
        <rect class="cls-3" x="43.94" y="195.06" width="207.14" height="36.17" rx="18.09" ry="18.09"/>
        <path class="cls-30" d="M232.99,231.23h-27.81l-.13-36.17h27.94c9.99,0,18.09,8.1,18.09,18.09h0c0,9.99-8.1,18.09-18.09,18.09Z"/>
        <g>
          <path class="cls-3" d="M225.96,219.48c-4.36,0-7.91-3.55-7.91-7.91s3.55-7.91,7.91-7.91,7.91,3.55,7.91,7.91c0,2.11-.82,4.1-2.32,5.59-1.49,1.49-3.48,2.32-5.59,2.32Zm0-13.82c-3.26,0-5.91,2.65-5.91,5.91s2.65,5.91,5.91,5.91c1.58,0,3.06-.61,4.18-1.73,1.12-1.12,1.73-2.6,1.73-4.18,0-3.26-2.65-5.91-5.91-5.91Z"/>
          <path class="cls-3" d="M237.09,223.76c-.26,0-.51-.1-.71-.29l-6.28-6.28c-.39-.39-.39-1.02,0-1.41,.39-.39,1.02-.39,1.41,0l6.28,6.28c.39,.39,.39,1.02,0,1.41-.2,.2-.45,.29-.71,.29Z"/>
        </g>
      </g>
    </g>
    <g>
      <path class="cls-29" d="M235.43,268.59h-85.1c-5.96,0-10.78-4.83-10.78-10.78v-7.07c0-5.98-4.85-10.82-10.82-10.82h-39.31c-5.98,0-10.82,4.85-10.82,10.82v112.33c0,5.57,4.51,10.08,10.08,10.08H235.43c5.57,0,10.08-4.51,10.08-10.08v-84.4c0-5.57-4.51-10.08-10.08-10.08Z"/>
      <path class="cls-29" d="M226.06,268.59h-85.1c-5.96,0-10.78-4.83-10.78-10.78v-7.07c0-5.98-4.85-10.82-10.82-10.82h-39.31c-5.98,0-10.82,4.85-10.82,10.82v112.33c0,5.57,4.51,10.08,10.08,10.08H226.06c5.57,0,10.08-4.51,10.08-10.08v-84.4c0-5.57-4.51-10.08-10.08-10.08Z"/>
      <path class="cls-4" d="M226.06,268.59h-85.1c-5.96,0-10.78-4.83-10.78-10.78v-7.07c0-5.98-4.85-10.82-10.82-10.82h-39.31c-5.98,0-10.82,4.85-10.82,10.82v112.33c0,5.57,4.51,10.08,10.08,10.08H226.06c5.57,0,10.08-4.51,10.08-10.08v-84.4c0-5.57-4.51-10.08-10.08-10.08Z"/>
      <path class="cls-4" d="M204.47,268.59h-73.39c-5.14,0-9.3-4.83-9.3-10.78v-7.07c0-5.98-4.18-10.82-9.33-10.82h-33.9c-5.15,0-9.33,4.85-9.33,10.82v112.33c0,5.57,3.89,10.08,8.69,10.08h126.56c4.8,0,8.69-4.51,8.69-10.08v-84.4c0-5.57-3.89-10.08-8.69-10.08Z"/>
      <path class="cls-3" d="M77.08,279.83c-.55,0-1-.45-1-1v-24.54c0-3.8,3.09-6.89,6.89-6.89h28.96c.55,0,1,.45,1,1s-.45,1-1,1h-28.96c-2.7,0-4.89,2.19-4.89,4.89v24.54c0,.55-.45,1-1,1Z"/>
    </g>
  </g>
</svg>